<svg width="128" height="68" xmlns="http://www.w3.org/2000/svg" xmlns:xlink="http://www.w3.org/1999/xlink"><defs><filter x="-5%" y="-10%" width="110%" height="120%" filterUnits="objectBoundingBox" id="a"><feMorphology radius="1" in="SourceAlpha" result="shadowSpreadOuter1"/><feOffset dy="3" in="shadowSpreadOuter1" result="shadowOffsetOuter1"/><feGaussianBlur stdDeviation=".5" in="shadowOffsetOuter1" result="shadowBlurOuter1"/><feColorMatrix values="0 0 0 0 0 0 0 0 0 0 0 0 0 0 0 0 0 0 0.1 0" in="shadowBlurOuter1" result="shadowMatrixOuter1"/><feOffset in="SourceAlpha" result="shadowOffsetOuter2"/><feGaussianBlur stdDeviation="2" in="shadowOffsetOuter2" result="shadowBlurOuter2"/><feColorMatrix values="0 0 0 0 0 0 0 0 0 0 0 0 0 0 0 0 0 0 0.08 0" in="shadowBlurOuter2" result="shadowMatrixOuter2"/><feMerge><feMergeNode in="shadowMatrixOuter1"/><feMergeNode in="shadowMatrixOuter2"/></feMerge></filter><rect id="b" x="0" y="0" width="120" height="60" rx="4"/></defs><g fill="none" fill-rule="evenodd"><g transform="translate(4 4)"><use fill="#000" filter="url(#a)" xlink:href="#b"/><use fill="#FFF" xlink:href="#b"/></g><path d="M72.063 37.412v-1.695l2.46-5.507h2.646l-2.307 5.278 5.343-.035-1.187 1.959h-6.955Zm0-3.177c.152-.23.288-.477.424-.742.628-1.235.424-2.047-.424-2.577v3.319Zm10.602-3.972-1.917 4.378c-1.035 2.33 1.612 2.894 3.902 2.912 1.984.035 4.885-.141 6.412-2.489l2.188-4.748-2.63.018-1.831 4.042c-.832 1.253-2.07 1.112-3.139 1.112-.797 0-2.9.265-2.035-1.553l1.645-3.707-2.595.035Zm-10.602.653v3.319c-1.273 2.1-3.105 3.177-5.7 3.283v-2.012c1.323-.018 2.324-.142 3.325-1.466 1.238-1.659-.61-2.135-2.952-2.118-.119 0-.254.018-.373.018v-1.695c.424-.017.882-.035 1.34-.035 1.985-.017 3.512.177 4.36.706Zm0 4.801-.73 1.695h.73v-1.695Zm-5.7-5.472v1.695c-1.527.088-2.986.565-3.613 1.96-.509 1.147.967 1.606 2.985 1.606h.628v2.012a5.017 5.017 0 0 1-.73 0c-3.019.035-4.97-.318-5.512-1.571v-1.73c.05-.194.118-.388.203-.583.882-2.277 3.003-3.177 6.04-3.389Zm-6.242 2.895c.152-.494.17-1.041 0-1.535v1.535Zm0-1.535v1.535c-.034.141-.085.265-.136.388-.492 1.13-2.969 3.83-5.87 3.849l-6.395.017L49.91 32.7h2.663l-1.239 2.754h2.223c2.34.035 3.223-.918 3.698-1.73.39-.689.135-1.96-1.815-1.907H50.45l2.392-1.765 4.835.053c1.476.124 2.188.742 2.443 1.5Zm0 2.612c-.204.706-.187 1.27 0 1.73v-1.73Zm-24.479 3.16v-1.448c2.189-1.783 4.445-3.548 6.854-5.242.95-.795 2.646-.777 3.02.123l1.984 6.514-9.568.035 2.426-1.995 3.206-.017-.644-2.666-5.819 4.696h-1.459Zm0-3.884 1.765-3.46h-1.765v3.46ZM9.875 37.36l8.736-6.69c1.408-1.024 2.68-.97 3.274-.035l1.883 6.725-9.652.035 2.426-2.118 3.41-.035-.73-2.666-5.937 4.82-3.41-.036Zm25.767-7.325v3.46l-1.187 2.312c-.899 2.047-1.883 2.4-3.19.67l-2.68-3.442-1.967 4.272-2.51-.053 3.12-6.266c.645-1.148 2.07-1.36 2.867-.442l2.8 3.301 1.967-3.812h.78Zm0 5.895c-.593.494-1.187.971-1.764 1.465l1.764-.017v-1.448Z" fill="#EC3D32"/><path d="M110.796 32.66v-.017l1.019-1.504 8.268.066-.95 1.488h-2.45l-2.003 4.89-2.71-.016 2.089-4.874-3.263-.034Zm-9.511-1.785h.76c-.208.628-.432 1.454-.76 2.297v-2.297Zm9.511.165h-7.526l-1.985 4.676v1.785l6.387.016 1.053-1.669-5.093.017.467-.991 4.263.033 1.053-1.554-4.678-.033.38-.908 4.764.033.915-1.388v-.017Zm-11.168-.132 1.657-.033v2.297c-.794 2.098-2.279 4.362-5.956 4.362l-4.954-.033.725-1.686 4.298-.033c1.157-.05 2.244-.363 2.797-1.635l1.433-3.239Zm1.657 4.808-.743 1.785h.743v-1.785Z" fill="#17549D"/></g></svg>