<svg width="128" height="68" xmlns="http://www.w3.org/2000/svg" xmlns:xlink="http://www.w3.org/1999/xlink"><defs><filter x="-5%" y="-10%" width="110%" height="120%" filterUnits="objectBoundingBox" id="b"><feMorphology radius="1" in="SourceAlpha" result="shadowSpreadOuter1"/><feOffset dy="3" in="shadowSpreadOuter1" result="shadowOffsetOuter1"/><feGaussianBlur stdDeviation=".5" in="shadowOffsetOuter1" result="shadowBlurOuter1"/><feColorMatrix values="0 0 0 0 0 0 0 0 0 0 0 0 0 0 0 0 0 0 0.1 0" in="shadowBlurOuter1" result="shadowMatrixOuter1"/><feOffset in="SourceAlpha" result="shadowOffsetOuter2"/><feGaussianBlur stdDeviation="2" in="shadowOffsetOuter2" result="shadowBlurOuter2"/><feColorMatrix values="0 0 0 0 0 0 0 0 0 0 0 0 0 0 0 0 0 0 0.08 0" in="shadowBlurOuter2" result="shadowMatrixOuter2"/><feMerge><feMergeNode in="shadowMatrixOuter1"/><feMergeNode in="shadowMatrixOuter2"/></feMerge></filter><rect id="a" x="0" y="0" width="120" height="60" rx="4"/></defs><g transform="translate(4 4)" fill="none" fill-rule="evenodd"><mask id="c" fill="#fff"><use xlink:href="#a"/></mask><use fill="#000" filter="url(#b)" xlink:href="#a"/><use fill="#FFF" xlink:href="#a"/><g mask="url(#c)" fill-rule="nonzero"><path d="M70.445 24.51c-1.42 4.304-5.477 7.421-10.25 7.421-5.95 0-10.791-4.844-10.791-10.8 0-5.955 4.84-10.8 10.792-10.8 1.812 0 3.52.451 5.02 1.244l.387-.34a11.197 11.197 0 0 0-5.407-1.385c-6.216 0-11.273 5.06-11.273 11.282 0 6.22 5.056 11.28 11.273 11.28 5.05 0 9.334-3.34 10.765-7.928l-.516.025Z" fill="#036"/><path d="M52.973 24.608c6.509-.6 12.957-1.598 19.314-3.2l-.296 1.318c-8.131 1.855-13.804 2.026-19.018 1.882" fill="#00B2E2"/><path d="M54.009 23.961c6.095-.958 12.336-2.476 18.746-4.646l-.301 1.35c-7.11 2.237-13.173 3.235-18.445 3.296" fill="#00B2E2"/><path d="M55.001 23.274c5.979-1.492 12.066-3.58 18.228-6.08-.1.453-.202.905-.303 1.358-6.528 2.565-12.566 4.254-17.925 4.722" fill="#57C8E7"/><path d="M55.991 22.46c6.028-1.833 11.958-4.59 17.826-7.894l-.372 1.666c-7.028 3.492-12.983 5.729-17.454 6.228" fill="#98DAE9"/><path d="M57.274 21.6c6.77-3.276 12.274-6.67 17.233-10.117l-.41 1.835c-5.623 3.592-11.234 6.567-16.823 8.282" fill="#57C8E7"/><path d="M58.26 20.536c6.657-4.211 12.432-8.495 17.1-12.87l-.5 2.241c-5.524 4.77-11.176 8.053-16.6 10.629M75.741 5l-1.883.049a82.611 82.611 0 0 1-7.037 7.563c-2.558 2.439-5.128 4.626-7.7 6.777C64.755 15.583 70.346 11.322 75.74 5M25 52.614h15.342v1H25zM79.543 52.614H95v1H79.543z" fill="#00B2E2"/><path d="m28.884 41.171-1.811 3.615h3.612l-1.8-3.615ZM26.73 45.51l-.929 1.813c-.206.425-.963.126-.756-.333l3.462-6.828c.07-.15.23-.218.378-.218.15 0 .287.069.368.218l3.451 6.794c.299.493-.55.78-.767.332l-.896-1.779H26.73ZM34.803 46.705H39.7c.538 0 .55.786 0 .821h-5.666c-.447 0-.584-.368-.332-.69l5.138-6.107h-4.644c-.505 0-.517-.75 0-.786h5.458c.47 0 .596.37.333.715l-5.184 6.047ZM42.12 46.739h4.53c.48 0 .55.787 0 .787h-4.83a.51.51 0 0 1-.526-.524v-6.546c0-.274.206-.513.527-.513h4.84c.493 0 .47.763-.01.763h-4.53v2.683h4.312c.458 0 .481.763 0 .763H42.12v2.587ZM49.46 44.072h2.317c1.502 0 2.155-.718 2.132-1.6-.01-.965-.802-1.74-2.132-1.74h-2.318v3.34Zm0 .74v2.281c0 .542-.837.542-.837.013v-6.75c0-.248.171-.412.424-.412h2.718c1.984 0 2.993 1.153 2.993 2.529 0 1.187-.631 2.046-2.042 2.292l1.859 2.058c.435.448-.195.965-.574.565l-2.316-2.575h-2.226ZM57.006 46.752h2.57c1.008 0 2.12-.275 2.12-1.479 0-.942-.779-1.347-1.777-1.347h-2.913v2.826Zm0-6.034v2.432h2.34c.986 0 1.846-.273 1.846-1.144 0-1.026-1.17-1.288-1.88-1.288h-2.306Zm2.57 6.808h-2.983a.429.429 0 0 1-.424-.43v-6.724a.43.43 0 0 1 .424-.43h2.719c1.066 0 2.718.371 2.718 2.064 0 .62-.287 1.169-.884 1.418.837.275 1.411.883 1.411 1.85 0 1.775-1.537 2.252-2.981 2.252ZM67.03 41.171l-1.811 3.615h3.612L67.03 41.17Zm-2.156 4.338-.929 1.813c-.206.425-.963.126-.756-.333l3.463-6.828c.069-.15.229-.218.378-.218.15 0 .286.069.367.218l3.452 6.794c.299.493-.55.78-.768.332l-.895-1.779h-4.312ZM71.95 40.362c0-.566.86-.555.86 0v6.773c0 .52-.86.543-.86 0v-6.773ZM78.475 40.715h-2.202a.388.388 0 0 1 0-.772h2.58c.207 0 .391.176.414.387v4.481c.01 1.579-1.445 2.726-2.959 2.726-1.457 0-2.637-1.053-2.718-2.457-.034-.539.803-.644.849-.013.069 1.065.905 1.685 1.87 1.685 1.112 0 2.166-.831 2.166-1.942v-4.095ZM83.831 41.171l-1.811 3.615h3.612l-1.8-3.615Zm-2.156 4.338-.928 1.813c-.206.425-.964.126-.756-.333l3.462-6.828c.069-.15.23-.218.378-.218.15 0 .287.069.367.218l3.453 6.794c.298.493-.551.78-.768.332l-.895-1.779h-4.313ZM94.005 40.348c0-.487.872-.51.872 0v6.647c0 .58-.792.637-1.033.23l-4.288-5.8.09 1.598v4.088c0 .567-.871.58-.871 0v-6.635c0-.58.642-.673.929-.243l4.415 5.963-.115-1.748v-4.1ZM45.534 50.535l-1.253 2.528h2.499l-1.246-2.528Zm-1.492 3.034-.643 1.268c-.143.297-.666.089-.523-.233l2.396-4.774c.048-.105.158-.154.262-.154.103 0 .199.049.254.154l2.389 4.75c.206.347-.381.546-.532.233l-.62-1.244h-2.983ZM48.937 49.971c0-.397.595-.39.595 0v4.749c0 .366-.595.381-.595 0V49.97ZM51.318 52.563h1.602c1.04 0 1.492-.5 1.476-1.118-.008-.675-.555-1.217-1.476-1.217h-1.602v2.335Zm0 .518v1.596c0 .378-.58.378-.58.008v-4.72c0-.174.12-.29.294-.29h1.88c1.373 0 2.072.807 2.072 1.77 0 .83-.437 1.431-1.413 1.604l1.286 1.44c.3.312-.135.674-.397.395l-1.604-1.802h-1.538ZM56.252 54.98c-.214 0-.3-.106-.3-.304V49.96c0-.387.586-.387.586 0v4.477h2.968c.405 0 .405.542 0 .542h-3.254ZM60.466 49.971c0-.397.595-.39.595 0v4.749c0 .366-.595.381-.595 0V49.97ZM65.845 49.938c0-.342.603-.36.603 0v4.67c0 .406-.547.446-.714.162l-2.968-4.077.063 1.123v2.872c0 .399-.603.407-.603 0v-4.662c0-.406.444-.472.643-.17l3.055 4.19-.08-1.23v-2.878h.001ZM68.32 54.43h3.135c.333 0 .38.55 0 .55h-3.341a.354.354 0 0 1-.365-.367v-4.585c0-.192.143-.36.365-.36h3.349c.341 0 .325.535-.009.535H68.32v1.88h2.983c.318 0 .334.534 0 .534H68.32v1.812ZM72.978 53.6c.206.662 1.087.806 1.721.806.675 0 1.722-.207 1.722-1.014 0-.694-.833-.752-1.706-.823-1.095-.088-2.27-.19-2.27-1.38 0-1.054 1.207-1.525 2.175-1.525.833 0 1.873.2 2.206 1.11.12.319-.42.463-.54.191-.238-.606-1.087-.71-1.658-.71-.532 0-1.563.216-1.563.942 0 .695.793.766 1.714.839 1.087.095 2.253.152 2.253 1.349 0 1.221-1.357 1.596-2.333 1.596-.809 0-2.047-.279-2.308-1.237-.096-.352.523-.472.587-.144" fill="#036"/></g></g></svg>