<svg width="128" height="68" xmlns="http://www.w3.org/2000/svg" xmlns:xlink="http://www.w3.org/1999/xlink"><defs><filter x="-5%" y="-10%" width="110%" height="120%" filterUnits="objectBoundingBox" id="a"><feMorphology radius="1" in="SourceAlpha" result="shadowSpreadOuter1"/><feOffset dy="3" in="shadowSpreadOuter1" result="shadowOffsetOuter1"/><feGaussianBlur stdDeviation=".5" in="shadowOffsetOuter1" result="shadowBlurOuter1"/><feColorMatrix values="0 0 0 0 0 0 0 0 0 0 0 0 0 0 0 0 0 0 0.1 0" in="shadowBlurOuter1" result="shadowMatrixOuter1"/><feOffset in="SourceAlpha" result="shadowOffsetOuter2"/><feGaussianBlur stdDeviation="2" in="shadowOffsetOuter2" result="shadowBlurOuter2"/><feColorMatrix values="0 0 0 0 0 0 0 0 0 0 0 0 0 0 0 0 0 0 0.08 0" in="shadowBlurOuter2" result="shadowMatrixOuter2"/><feMerge><feMergeNode in="shadowMatrixOuter1"/><feMergeNode in="shadowMatrixOuter2"/></feMerge></filter><rect id="b" x="0" y="0" width="120" height="60" rx="4"/></defs><g fill="none" fill-rule="evenodd"><g transform="translate(4 4)"><use fill="#000" filter="url(#a)" xlink:href="#b"/><use fill="#FFF" xlink:href="#b"/></g><path d="m72.077 40.476.543-1.55c.094-.265.348-.417.57-.34.161.057.26.208.267.395.003.043.01.1.044.153.484.86 1.593 1.435 2.928 1.342 1.15-.081 1.602-.826 1.54-1.723-.024-.337-.251-.679-.335-.794-.142-.185-2.554-3.082-2.554-3.082a4.884 4.884 0 0 1-.957-2.57c-.19-2.711 1.82-5.057 5.055-5.283 2.034-.147 3.633.39 4.844 1.323l-.536 1.525c-.093.265-.348.418-.568.34-.162-.056-.26-.207-.267-.394a.337.337 0 0 0-.045-.153c-.49-.852-1.415-1.406-2.742-1.313-1.15.08-1.792.89-1.727 1.826.013.184.059.356.124.518.138.331.31.645.521.927l1.337 1.602.615.748c.54.724 1.19 1.584 1.258 2.55.189 2.71-1.822 5.054-5.056 5.281-2.034.146-3.648-.395-4.859-1.328m24.978 0 .543-1.55c.093-.265.348-.417.57-.34.16.057.26.208.266.395.004.043.011.1.045.153.483.86 1.593 1.435 2.927 1.342 1.15-.081 1.603-.826 1.54-1.723-.023-.337-.25-.679-.333-.794-.143-.185-2.555-3.082-2.555-3.082a4.884 4.884 0 0 1-.958-2.57c-.19-2.711 1.821-5.057 5.056-5.283 2.033-.147 3.632.39 4.844 1.323l-.536 1.525c-.093.265-.347.418-.57.34-.16-.056-.26-.207-.266-.394a.326.326 0 0 0-.045-.153c-.49-.852-1.414-1.406-2.742-1.313-1.15.08-1.791.89-1.726 1.826.013.184.058.356.123.518.138.331.31.645.521.927l1.338 1.602.616.748c.537.724 1.19 1.584 1.256 2.55.19 2.71-1.82 5.054-5.055 5.281-2.034.146-3.648-.395-4.859-1.328M90.65 28.923 87.93 35.2c-.237.55-.685 1.615-.71 2.355 0 .582.36.995.832 1.12.14.033.317.081.468.081a1.87 1.87 0 0 0 1.717-1.126l4.371-10.137h5.022a.434.434 0 0 1 .188.034.45.45 0 0 1 .237.586c-.06.15-.178.232-.385.258-.375.059-.53.23-.669.559l-2.484 5.744a8.949 8.949 0 0 1-8.35 5.692 8.07 8.07 0 0 1-3.508-.801 3.137 3.137 0 0 1-1.709-2.784 8.792 8.792 0 0 1 .81-3.518l1.972-4.566a.211.211 0 0 0 .016-.075c.004-.162-.121-.245-.2-.28-.183-.07-.299-.222-.299-.401 0-.248.24-.448.537-.448h5.486a.43.43 0 0 1 .187.034.45.45 0 0 1 .237.586c-.06.15-.178.232-.385.258-.375.059-.521.226-.66.553m-27.481 4.491h2.641l-.72-3.114-1.921 3.114ZM19 39.832l4.868-11.318a.27.27 0 0 0 .017-.074c.003-.163-.121-.246-.2-.28-.183-.072-.3-.223-.3-.403 0-.246.24-.446.538-.446h5.297l3.032.009c.923 0 1.738.543 2.078 1.34.195.486.296 1.01.296 1.566a4.19 4.19 0 0 1-.725 2.358c-.977 1.448-2.578 2.316-4.307 2.316h-3.661l-1.62 3.805c-.008.021-.021.049-.021.075 0 .09.065.169.142.204.184.07.3.222.3.4 0 .248-.24.448-.537.448H19Zm7.59-6.41 2.054-4.771s.327-.009.438.008c.225.036.397.088.575.192.822.484.885 1.856.14 3.067-.565.918-1.385 1.492-2.405 1.499l-.802.004Zm12.565.643-1.907 4.427 4.461.003c.355 0 .597-.122.798-.443A.58.58 0 0 1 43 37.77a.447.447 0 0 1 .406.633l-.623 1.432H31.662l4.829-11.195c.006-.023.016-.163.013-.188-.013-.177-.217-.27-.295-.305-.183-.071-.3-.222-.3-.403 0-.246.206-.436.551-.436h10.128l-.762 1.768c-.117.271-.396.413-.623.316-.164-.072-.257-.238-.25-.435-.001-.085-.028-.233-.179-.294a.338.338 0 0 0-.088-.014h-3.19l-1.799 4.174 2.682-.003c.303-.021.478-.052.66-.343a.579.579 0 0 1 .493-.282c.246 0 .404.2.404.447 0 .067-.016.129-.042.186l-.727 1.662c-.116.273-.396.414-.623.317-.165-.07-.214-.238-.207-.434 0-.085-.028-.233-.178-.294a.274.274 0 0 0-.061-.012l-2.943-.002Zm27.915 5.764c-.297 0-.532-.197-.532-.445 0-.18.115-.33.298-.4.078-.036.208-.12.2-.282a.224.224 0 0 0-.01-.062l-.865-3.704H62.23l-2.275 3.685a.172.172 0 0 0-.021.073c-.003.163.123.245.2.28.184.07.301.22.302.4.002.247-.238.448-.534.45l-2.334.005a.446.446 0 0 1-.427-.622c.073-.172.228-.236.436-.261.293-.048.442-.159.579-.363l7.124-11.27h4.364c.296 0 .535.205.535.452 0 .18-.116.33-.299.401-.079.036-.197.117-.193.28l2.65 11.383H67.07Zm-8.027-6.458a.433.433 0 0 1 .188.035.45.45 0 0 1 .235.585c-.059.15-.177.233-.385.258-.374.059-.524.218-.664.545l-2.153 4.991h-4.376l-.185-.338c-1.204.501-2.226.695-3.624.695-2.222 0-4.038-1.801-4.038-4.022 0-.138.002-.274.016-.407.57-4.89 4.712-8.713 9.755-8.713 2.43 0 3.814.448 5.846 1.437l-.537 1.282a.645.645 0 0 1-.06.108c-.137.2-.37.297-.562.208-.241-.11-.186-.258-.3-.504-.187-.404-.434-.532-.592-.641-.789-.498-1.321-.517-1.86-.517a4.942 4.942 0 0 0-3.307 1.264c-1.907 1.69-3.238 3.968-3.611 6.742-.013.084-.02.17-.02.258 0 .987.787 1.8 1.774 1.8 1.21 0 1.873-.7 2.338-1.735l.852-2a.578.578 0 0 0 .02-.118c0-.261-.214-.334-.293-.37-.182-.07-.303-.217-.303-.397 0-.247.191-.447.536-.447" fill="#E31F26"/></g></svg>