<svg width="128" height="68" xmlns="http://www.w3.org/2000/svg" xmlns:xlink="http://www.w3.org/1999/xlink"><defs><filter x="-5%" y="-10%" width="110%" height="120%" filterUnits="objectBoundingBox" id="a"><feMorphology radius="1" in="SourceAlpha" result="shadowSpreadOuter1"/><feOffset dy="3" in="shadowSpreadOuter1" result="shadowOffsetOuter1"/><feGaussianBlur stdDeviation=".5" in="shadowOffsetOuter1" result="shadowBlurOuter1"/><feColorMatrix values="0 0 0 0 0 0 0 0 0 0 0 0 0 0 0 0 0 0 0.1 0" in="shadowBlurOuter1" result="shadowMatrixOuter1"/><feOffset in="SourceAlpha" result="shadowOffsetOuter2"/><feGaussianBlur stdDeviation="2" in="shadowOffsetOuter2" result="shadowBlurOuter2"/><feColorMatrix values="0 0 0 0 0 0 0 0 0 0 0 0 0 0 0 0 0 0 0.08 0" in="shadowBlurOuter2" result="shadowMatrixOuter2"/><feMerge><feMergeNode in="shadowMatrixOuter1"/><feMergeNode in="shadowMatrixOuter2"/></feMerge></filter><rect id="b" x="0" y="0" width="120" height="60" rx="4"/></defs><g fill="none" fill-rule="evenodd"><g transform="translate(4 4)"><use fill="#000" filter="url(#a)" xlink:href="#b"/><use fill="#FFF" xlink:href="#b"/></g><g fill-rule="nonzero"><path d="M31.797 28.489c-3.214 0-5.567 2.391-5.567 5.331v.04c0 2.94 2.353 5.291 5.528 5.291 3.214 0 5.566-2.39 5.566-5.33v-.04c0-2.94-2.352-5.292-5.527-5.292Zm2.666 5.37c0 1.53-.98 2.783-2.666 2.783-1.607 0-2.705-1.332-2.705-2.822v-.04c0-1.489 1.02-2.782 2.666-2.782 1.607-.04 2.705 1.293 2.705 2.861ZM73.192 33.742V26.45c0-.823-.666-1.45-1.45-1.45-.823 0-1.49.666-1.49 1.45v2.548a5.895 5.895 0 0 0-2.626-.627c-3.214 0-5.606 2.391-5.606 5.37v.04c0 2.98 2.392 5.331 5.567 5.331.98 0 1.881-.235 2.665-.627l.196-.118c.275.432.745.745 1.294.745.823 0 1.49-.666 1.49-1.49V33.743h-.04Zm-2.94.51c-.196 1.293-1.136 2.351-2.626 2.351-1.607 0-2.705-1.333-2.705-2.861v-.04c0-1.528 1.02-2.822 2.666-2.822 1.45 0 2.509 1.098 2.665 2.43v.941ZM43.91 28.41a5.65 5.65 0 0 0-2.627.628V26.45c0-.823-.666-1.45-1.45-1.45-.823 0-1.45.666-1.45 1.45V37.623c0 .823.666 1.49 1.49 1.49.548 0 1.018-.314 1.293-.746l.196.118a5.937 5.937 0 0 0 2.665.627c3.215 0 5.567-2.352 5.567-5.331v-.04c-.079-2.94-2.47-5.33-5.684-5.33Zm2.705 5.332c0 1.528-1.098 2.861-2.705 2.861-1.49 0-2.47-1.019-2.627-2.352v-.901c.196-1.333 1.216-2.43 2.666-2.43 1.686 0 2.666 1.293 2.666 2.822ZM25.211 33.86v-.04c0-2.98-2.352-5.331-5.566-5.331-.98 0-1.882.235-2.666.627l-.235.078c-.235-.43-.706-.705-1.254-.705-.824 0-1.49.627-1.49 1.45v11.172c0 .824.666 1.45 1.45 1.45.824 0 1.45-.666 1.45-1.45v-2.548a5.895 5.895 0 0 0 2.627.628c3.293.039 5.684-2.392 5.684-5.332Zm-2.9.038c0 1.53-1.02 2.823-2.666 2.823-1.45 0-2.509-1.098-2.666-2.43v-.902c.196-1.294 1.137-2.352 2.627-2.352 1.607-.04 2.704 1.293 2.704 2.861ZM94.125 34.84a4.157 4.157 0 0 1-4.155 4.155 4.157 4.157 0 0 1-4.155-4.156 4.157 4.157 0 0 1 4.155-4.155c2.274.04 4.155 1.882 4.155 4.155" fill="#0095D4"/><path d="M104.043 34.84a4.157 4.157 0 0 1-4.155 4.155 4.157 4.157 0 0 1-4.155-4.156 4.157 4.157 0 0 1 4.155-4.155c2.313.04 4.155 1.882 4.155 4.155" fill="#66ADDF"/><path d="M114 34.84a4.157 4.157 0 0 1-4.155 4.155 4.157 4.157 0 0 1-4.155-4.156 4.157 4.157 0 0 1 4.155-4.155c2.313.04 4.155 1.882 4.155 4.155" fill="#92C0E6"/><path d="M57.904 32.762c-.078-1.059-.823-1.921-2.077-1.921-1.255 0-2 .745-2.195 1.92h4.272Zm2.47 4.508c0 .588-.431 1.019-1.294 1.372-.94.392-1.96.47-2.94.47-1.764 0-3.136-.549-4.116-1.49-.98-.98-1.529-2.352-1.529-3.92 0-1.528.588-2.861 1.49-3.763.902-.901 2.195-1.411 3.842-1.411 1.685 0 2.861.549 3.685 1.333.98.98 1.293 2.195 1.293 3.175 0 1.058-.549 1.646-1.49 1.646h-5.644c.274 1.333 1.215 2.078 2.665 2.078 1.568 0 2.156-.706 2.94-.706.628.04 1.098.588 1.098 1.216M83.777 32.722c-.04-.43-.353-1.842-1.372-2.861-.902-.941-2.117-1.529-3.764-1.529-.94 0-1.45 0-2.352.392-.823.314-1.215.745-1.215 1.333 0 .627.431 1.176 1.058 1.176.706 0 .706-.51 2.196-.51 1.215 0 2.038.55 2.43 1.607-.94-.43-1.96-.47-1.96-.47s-3.567-.314-4.351 2.822c-.392 2.156.862 4.038 3.45 4.352 2.273.157 3.41-.784 3.41-.784.235.392.666.666 1.176.666.745 0 1.372-.588 1.372-1.372 0 0 .04-3.763-.078-4.822Zm-4.783 4.39c-1.137 0-2.077-.744-2.077-1.606 0-.902.94-1.608 2.077-1.608s2.078.745 2.078 1.608c0 .862-.941 1.607-2.078 1.607Z" fill="#0095D4"/></g></g></svg>