<svg width="128" height="68" xmlns="http://www.w3.org/2000/svg" xmlns:xlink="http://www.w3.org/1999/xlink"><defs><filter x="-5%" y="-10%" width="110%" height="120%" filterUnits="objectBoundingBox" id="a"><feMorphology radius="1" in="SourceAlpha" result="shadowSpreadOuter1"/><feOffset dy="3" in="shadowSpreadOuter1" result="shadowOffsetOuter1"/><feGaussianBlur stdDeviation=".5" in="shadowOffsetOuter1" result="shadowBlurOuter1"/><feColorMatrix values="0 0 0 0 0 0 0 0 0 0 0 0 0 0 0 0 0 0 0.1 0" in="shadowBlurOuter1" result="shadowMatrixOuter1"/><feOffset in="SourceAlpha" result="shadowOffsetOuter2"/><feGaussianBlur stdDeviation="2" in="shadowOffsetOuter2" result="shadowBlurOuter2"/><feColorMatrix values="0 0 0 0 0 0 0 0 0 0 0 0 0 0 0 0 0 0 0.08 0" in="shadowBlurOuter2" result="shadowMatrixOuter2"/><feMerge><feMergeNode in="shadowMatrixOuter1"/><feMergeNode in="shadowMatrixOuter2"/></feMerge></filter><rect id="b" x="0" y="0" width="120" height="60" rx="4"/></defs><g fill="none" fill-rule="evenodd"><g transform="translate(4 4)"><use fill="#000" filter="url(#a)" xlink:href="#b"/><use fill="#FFF" xlink:href="#b"/></g><g fill-rule="nonzero"><path d="M47.23 37.147c.43.31.874.553 1.334.727.46.176.954.263 1.482.263.576 0 1.02-.115 1.334-.345.312-.23.469-.55.469-.96 0-.25-.035-.465-.103-.645a1.35 1.35 0 0 0-.337-.494 2.784 2.784 0 0 0-.615-.428 22.948 22.948 0 0 0-.924-.457c-.41-.19-.78-.382-1.108-.577a3.608 3.608 0 0 1-.835-.668 2.594 2.594 0 0 1-.528-.877c-.122-.335-.183-.736-.183-1.206 0-.49.087-.927.264-1.312.176-.385.423-.71.74-.975a3.311 3.311 0 0 1 1.144-.607c.444-.14.94-.21 1.488-.21.557 0 1.075.07 1.554.21.479.14.884.32 1.217.54l-.367 1.829a4.595 4.595 0 0 0-1.063-.63 3.257 3.257 0 0 0-1.297-.255c-.47 0-.856.11-1.158.33-.304.22-.455.52-.455.9 0 .23.037.424.11.584.074.16.18.306.323.435.14.13.32.253.535.367.214.116.464.238.747.368.41.19.797.38 1.158.57.362.19.675.413.939.667.264.255.474.552.63.892.157.34.235.756.235 1.245 0 1.09-.357 1.932-1.07 2.526-.714.595-1.701.893-2.962.893-.616 0-1.17-.083-1.664-.248a5.983 5.983 0 0 1-1.268-.577l.235-1.875ZM54.816 31.63h1.95v5.351c0 .41.08.728.235.953.157.224.405.338.747.338.304 0 .555-.094.756-.285.2-.19.383-.445.55-.766V31.63h1.92v8.037h-1.862v-.976c-.077.12-.174.247-.286.382a2.195 2.195 0 0 1-.938.66 1.93 1.93 0 0 1-.682.113c-.43 0-.797-.065-1.1-.195a1.838 1.838 0 0 1-.74-.563 2.358 2.358 0 0 1-.418-.883 4.683 4.683 0 0 1-.132-1.148V31.63ZM62.174 31.63h1.862v.959c.07-.12.162-.247.28-.383.116-.135.253-.26.409-.374.156-.116.335-.21.535-.285.202-.075.427-.113.682-.113.86 0 1.474.253 1.84.757.368.506.55 1.183.55 2.032v5.444h-1.95v-5.37c0-.409-.078-.726-.235-.95-.155-.226-.405-.338-.747-.338-.304 0-.555.094-.754.285-.201.19-.385.444-.551.765v5.608h-1.921V31.63ZM69.605 28.556h6.026l-.074 1.724h-3.9v2.758h3.182v1.725h-3.182v3.179h4.164v1.725h-6.216zM76.398 39.667a96.504 96.504 0 0 1 1.247-2.145c.194-.32.398-.645.607-.975l.609-.96c-.215-.33-.423-.665-.622-1.004l-.594-1.005c-.196-.32-.383-.644-.557-.975a32.64 32.64 0 0 0-.544-.973h2.186l.482.944.337.644c.128.24.26.47.397.69a74.55 74.55 0 0 0 .835-1.379c.09-.14.172-.285.25-.435.078-.15.162-.305.25-.464h2.052l-.564.973c-.182.31-.368.63-.564.96-.187.31-.38.627-.58.953-.2.324-.398.631-.594.921l.623 1.02c.22.36.428.715.624 1.065.195.35.393.698.593 1.05.2.35.402.714.609 1.095h-2.185l-.615-1.126-.778-1.364-.777 1.304a21.467 21.467 0 0 0-.673 1.186h-2.054ZM84.182 31.63h1.92v.583c.177-.22.404-.405.68-.554.281-.15.606-.225.976-.225.9 0 1.606.348 2.119 1.042.514.695.769 1.727.769 3.096 0 1.44-.255 2.512-.77 3.217-.512.704-1.193 1.057-2.044 1.057a2.154 2.154 0 0 1-1.153-.308 1.53 1.53 0 0 1-.35-.285 2.616 2.616 0 0 1-.227-.293v3.988h-1.92V31.63Zm1.92 5.95c.107.172.261.336.462.497.2.16.436.24.712.24.38 0 .71-.212.99-.637.276-.425.417-1.097.417-2.017 0-.97-.137-1.665-.41-2.085-.275-.42-.622-.63-1.041-.63-.284 0-.516.075-.698.226a2.82 2.82 0 0 0-.432.433v3.974ZM91.51 31.63h1.863v1.258c.087-.179.193-.352.316-.517a1.98 1.98 0 0 1 .996-.735c.22-.075.47-.111.755-.111.196 0 .367.014.513.044l-.176 1.649a1.53 1.53 0 0 0-.212-.044 2.01 2.01 0 0 0-.272-.015c-.42 0-.783.092-1.084.278-.304.184-.563.5-.777.951v5.279H91.51V31.63ZM101.981 39.112c-.254.22-.575.396-.96.532-.387.134-.887.203-1.503.203-.527 0-1.01-.1-1.453-.301a3.177 3.177 0 0 1-1.128-.855 3.969 3.969 0 0 1-.724-1.326 5.346 5.346 0 0 1-.259-1.702c0-1.34.285-2.379.853-3.12.564-.738 1.338-1.108 2.315-1.108.978 0 1.713.317 2.207.952.495.634.741 1.491.741 2.571 0 .18-.006.366-.014.555a3.69 3.69 0 0 1-.046.45h-4.118c.009.34.072.65.19.929.117.281.27.523.461.727.19.205.408.365.653.48.245.115.502.173.777.173.742 0 1.369-.246 1.876-.735l.132 1.575Zm-1.788-4.499c-.03-1.21-.386-1.814-1.071-1.814-.332 0-.609.144-.827.435-.22.29-.35.75-.39 1.38h2.288ZM102.995 37.523c.282.21.612.401.99.577.376.174.764.262 1.165.262.127 0 .256-.013.39-.038.13-.024.244-.066.343-.127a.731.731 0 0 0 .242-.247.754.754 0 0 0 .095-.398.84.84 0 0 0-.352-.712 4.129 4.129 0 0 0-.893-.487 7.27 7.27 0 0 1-.785-.398 2.806 2.806 0 0 1-.651-.51 2.135 2.135 0 0 1-.441-.69 2.46 2.46 0 0 1-.162-.936c0-.37.08-.703.235-.998a2.39 2.39 0 0 1 .615-.75c.254-.203.55-.362.888-.471.337-.11.687-.165 1.048-.165.47 0 .879.05 1.231.15.351.1.67.224.954.374l-.252 1.545a4.904 4.904 0 0 0-.848-.45 2.648 2.648 0 0 0-1.028-.195c-.234 0-.454.067-.66.203a.668.668 0 0 0-.308.592c0 .13.027.245.075.345.049.099.126.195.234.284.109.09.25.18.425.27.177.09.392.19.646.3.254.11.5.236.74.376.238.14.45.304.63.494.181.19.326.415.432.675.11.26.163.564.163.913 0 .811-.266 1.436-.792 1.876-.527.44-1.236.66-2.127.66-.497 0-.937-.051-1.32-.15a5.307 5.307 0 0 1-1.113-.436l.19-1.738ZM108.84 37.523c.283.21.614.401.99.577.374.174.763.262 1.164.262.128 0 .257-.013.388-.038.132-.024.248-.066.346-.127a.731.731 0 0 0 .242-.247.768.768 0 0 0 .095-.398c0-.3-.117-.538-.352-.712a4.16 4.16 0 0 0-.894-.487 7.553 7.553 0 0 1-.785-.398 2.858 2.858 0 0 1-.652-.51 2.156 2.156 0 0 1-.44-.69 2.461 2.461 0 0 1-.16-.936c0-.37.076-.703.233-.998.155-.294.362-.544.616-.75a2.76 2.76 0 0 1 .887-.471 3.38 3.38 0 0 1 1.048-.165c.47 0 .879.05 1.231.15.353.1.67.224.953.374l-.249 1.545a4.893 4.893 0 0 0-.85-.45 2.652 2.652 0 0 0-1.027-.195c-.233 0-.453.067-.66.203a.666.666 0 0 0-.307.592c0 .13.025.245.073.345.05.099.127.195.234.284.108.09.25.18.427.27.175.09.39.19.645.3.252.11.5.236.74.376.239.14.45.304.63.494.181.19.325.415.432.675.108.26.162.564.162.913 0 .811-.263 1.436-.792 1.876-.527.44-1.237.66-2.126.66-.498 0-.938-.051-1.32-.15-.38-.1-.752-.246-1.114-.436l.192-1.738ZM27.991 38.064c-3.814.28-9.093 1.12-12.885.914a11.218 11.218 0 0 0 2.562 3.375 11.15 11.15 0 0 0 7.462 2.869c2.769 0 5.416-1.002 7.455-2.82a10.862 10.862 0 0 0 2.068-2.444c.367-.6.67-1.236.912-1.916-1.634-.325-4.43-.208-7.574.022M18.989 24.895a.25.25 0 0 0-.2.04c-.202.139-.405.29-.6.444a.254.254 0 0 0-.063.325l1.89 3.275.098.132-.004.007-.131-.099-3.278-1.892a.252.252 0 0 0-.325.062c-.155.196-.303.397-.443.6a.256.256 0 0 0 .082.364l5.592 3.226.127.034c.07 0 .14-.03.19-.087.126-.143.261-.28.403-.403a.252.252 0 0 0 .053-.318l-3.227-5.589a.251.251 0 0 0-.164-.12M34.329 27.987a.253.253 0 0 0-.039-.2c-.14-.202-.29-.404-.445-.6a.251.251 0 0 0-.324-.062l-3.277 1.891-.131.097-.004-.004.097-.131 1.892-3.278a.253.253 0 0 0-.063-.325 11.159 11.159 0 0 0-.6-.443.254.254 0 0 0-.363.082l-3.227 5.591-.034.127c0 .07.03.14.087.19.143.125.28.261.403.404.08.09.214.113.32.053l5.588-3.228a.252.252 0 0 0 .12-.164M30.033 24.2a.258.258 0 0 0-.134-.154 11.026 11.026 0 0 0-.686-.296.254.254 0 0 0-.312.108l-1.891 3.275-.066.151-.006-.003.019-.162v-3.784a.253.253 0 0 0-.218-.251 11.617 11.617 0 0 0-.74-.083.252.252 0 0 0-.191.067.247.247 0 0 0-.083.185l.002 6.456.034.127c.034.06.096.107.17.122.187.037.373.086.55.147a.255.255 0 0 0 .303-.114l3.226-5.59a.253.253 0 0 0 .023-.201M36.157 33.418a.255.255 0 0 0 .066-.193c-.02-.245-.048-.495-.085-.743a.252.252 0 0 0-.25-.215l-3.783-.001-.162.019-.002-.007.15-.065 3.277-1.892c.108-.064.156-.197.108-.314-.091-.23-.192-.46-.298-.682a.254.254 0 0 0-.354-.11l-5.592 3.228-.091.092a.256.256 0 0 0-.022.21c.063.18.113.365.149.55a.254.254 0 0 0 .248.204h6.455c.07 0 .138-.03.186-.081M15.2 29.19a.259.259 0 0 0-.154.134c-.106.222-.205.453-.296.686a.252.252 0 0 0 .107.312l3.276 1.89.15.066-.003.007-.16-.019h-3.785a.252.252 0 0 0-.25.218c-.037.246-.065.495-.084.74-.005.071.019.14.066.192.048.05.116.082.186.082l6.456-.002.127-.033a.262.262 0 0 0 .122-.17c.035-.188.085-.373.146-.552a.255.255 0 0 0-.112-.302l-5.59-3.227a.258.258 0 0 0-.202-.022M24.415 23.068a.259.259 0 0 0-.192-.066c-.245.02-.495.049-.742.085a.253.253 0 0 0-.216.25l-.001 3.784.019.161-.007.002-.065-.15-1.892-3.277a.252.252 0 0 0-.314-.107c-.23.091-.46.19-.682.297a.251.251 0 0 0-.11.355l3.227 5.59.093.094a.258.258 0 0 0 .209.02c.18-.061.366-.112.551-.148a.255.255 0 0 0 .205-.249l-.001-6.454a.25.25 0 0 0-.082-.187" fill="#1A428A"/><path d="M35.518 34.894c-2.33 0-4.116.567-8.743 1.55-6.547 1.39-11.198.241-12.264.104-.159-.02-.263.061-.21.24.116.532.51 1.672.807 2.19 3.793.206 9.072-.634 12.886-.914 3.145-.23 5.94-.347 7.573-.022.265-.743.46-1.537.588-2.395.074-.49.015-.753-.637-.753" fill="#EE5F2A"/><path d="M14.23 35.689c.22.086 3.246 1.117 7.945 1.184 1.333.02 3.035-.179 4.051-.4a19 19 0 0 1-3.075.25c-2.708-.01-6.815-.96-8.763-1.83a.247.247 0 0 0-.247.03.253.253 0 0 0-.104.228c.01.125.023.25.036.374.012.061.03.113.157.164" fill="#EE5F2A"/></g></g></svg>