<svg width="128" height="68" xmlns="http://www.w3.org/2000/svg" xmlns:xlink="http://www.w3.org/1999/xlink"><defs><filter x="-5%" y="-10%" width="110%" height="120%" filterUnits="objectBoundingBox" id="a"><feMorphology radius="1" in="SourceAlpha" result="shadowSpreadOuter1"/><feOffset dy="3" in="shadowSpreadOuter1" result="shadowOffsetOuter1"/><feGaussianBlur stdDeviation=".5" in="shadowOffsetOuter1" result="shadowBlurOuter1"/><feColorMatrix values="0 0 0 0 0 0 0 0 0 0 0 0 0 0 0 0 0 0 0.1 0" in="shadowBlurOuter1" result="shadowMatrixOuter1"/><feOffset in="SourceAlpha" result="shadowOffsetOuter2"/><feGaussianBlur stdDeviation="2" in="shadowOffsetOuter2" result="shadowBlurOuter2"/><feColorMatrix values="0 0 0 0 0 0 0 0 0 0 0 0 0 0 0 0 0 0 0.08 0" in="shadowBlurOuter2" result="shadowMatrixOuter2"/><feMerge><feMergeNode in="shadowMatrixOuter1"/><feMergeNode in="shadowMatrixOuter2"/></feMerge></filter><rect id="b" x="0" y="0" width="120" height="60" rx="4"/></defs><g fill="none" fill-rule="evenodd"><g transform="translate(4 4)"><use fill="#000" filter="url(#a)" xlink:href="#b"/><use fill="#FFF" xlink:href="#b"/></g><g fill-rule="nonzero"><path d="M15.351 33.819c.723-2.716-.101-5.562-2.074-7.07a8.142 8.142 0 0 0-2.53 11.23c2.101-.585 3.948-1.692 4.604-4.16m3.626 7.838a8.138 8.138 0 0 0 6.679-9.375 8.142 8.142 0 0 0-7.175-6.75 8.168 8.168 0 0 0-4.661.905c3.908 1.325 6.009 3.34 6.154 5.404.072 1.275-.52 2.197-1.299 2.948l5.526-.386c.156-.01.205.172.016.226l-13.18 3.779a8.157 8.157 0 0 0 5.74 3.319 8.12 8.12 0 0 0 2.2-.07m-.445-16.61a8.63 8.63 0 1 1-1.806 17.164 8.63 8.63 0 0 1 1.806-17.164" fill="#FFF"/><path d="M9.601 34.979a8.085 8.085 0 0 0 1.146 3c2.101-.585 3.948-1.692 4.605-4.16.722-2.716-.102-5.562-2.075-7.07a8.143 8.143 0 0 0-3.676 8.23m16.055-2.697a8.139 8.139 0 0 1-8.88 9.445 8.157 8.157 0 0 1-5.739-3.32l13.18-3.778c.19-.055.14-.237-.016-.226l-5.526.386c.778-.751 1.37-1.673 1.3-2.948-.146-2.064-2.247-4.079-6.155-5.404a8.168 8.168 0 0 1 4.661-.904 8.142 8.142 0 0 1 7.175 6.749" fill="#C70A0C"/><path fill="#000" d="M70.956 37.014v-2.837h-2.845v2.837H66.55v-6.758h1.561v2.692h2.845v-2.692h1.574v6.758zM37.3 30.256v4.231c0 .468.07.872.206 1.201.135.327.33.598.581.807.253.21.56.366.908.461.355.098.755.148 1.19.148.434 0 .831-.05 1.178-.148.342-.095.634-.25.867-.46.234-.208.417-.48.545-.806.129-.328.193-.733.193-1.203v-4.231h-1.46v4.186c0 .426-.106.77-.315 1.023-.213.258-.553.388-1.008.388-.448 0-.784-.13-1.001-.387-.213-.252-.321-.596-.321-1.024v-4.186H37.3ZM32.797 37.015v-5.497H30.96v-1.262h5.245v.605a.657.657 0 0 1-.656.657h-1.19v5.497h-1.562ZM57.897 30.255h1.562v6.759h-1.562zM52.695 33.862l.053.068 1.995 2.57c.254.328.637.516 1.051.516h1.244L54.18 33.38l-.042-.053.042-.054 2.35-3.02h-1.626l-2.155 2.913-.054.07v-2.983h-1.562v6.76h1.562v-3.15ZM45.973 33.35h.91c.328 0 .578-.091.743-.268a.96.96 0 0 0 .246-.677c0-.28-.081-.51-.24-.686-.16-.179-.412-.268-.748-.268h-.911v1.898Zm3.124 3.663c-.463 0-.9-.245-1.138-.64l-1.216-2.007h-.77v2.647h-1.56v-6.757h2.782c.715 0 1.275.186 1.664.554.389.368.585.87.585 1.495 0 .317-.084.639-.25.955-.165.312-.457.566-.868.757l-.09.042 1.896 2.954h-1.035ZM60.74 36.727v-1.296c.498.23 1.138.458 1.8.458.763 0 1.15-.261 1.15-.762 0-.588-.52-.653-1.558-1.1-.707-.316-1.38-.806-1.38-1.938 0-1.317 1.005-1.938 2.397-1.938.74 0 1.37.174 1.722.305v1.263a4.138 4.138 0 0 0-1.612-.36c-.685 0-1.005.25-1.005.686 0 .458.387.6 1.082.86.895.447 1.933.643 1.933 2.167 0 1.318-1.05 2.036-2.452 2.036-.862 0-1.546-.152-2.076-.38M108.985 37.014v-6.76h4.232v.614a.65.65 0 0 1-.648.649h-2.022v1.454h2.27v1.128h-2.27v1.653h2.67v1.262h-4.232ZM93.544 37.013v-6.758h.759c.442 0 .802.36.802.802v4.739h2.493v1.217h-4.054ZM83.875 37.012v-6.754h1.562v6.754zM88.43 33.348h.911c.328 0 .578-.09.743-.267a.96.96 0 0 0 .245-.677c0-.28-.08-.511-.24-.686-.16-.178-.412-.268-.748-.268h-.91v1.898Zm3.124 3.664c-.463 0-.899-.245-1.138-.64L89.2 34.365h-.77v2.647H86.87v-6.757h2.783c.715 0 1.275.187 1.664.555.388.367.585.87.585 1.495 0 .317-.084.638-.251.955-.164.31-.456.565-.867.757l-.09.042 1.896 2.953h-1.036ZM78.507 34.551l.614-1.708c.136-.385.272-.79.363-1.09h.023c.08.31.216.695.352 1.09l.59 1.708h-1.942Zm1.93-4.297h-1.794l-2.549 6.76h1.125a.659.659 0 0 0 .628-.454l.262-.793h2.74l.402 1.246h1.692l-2.506-6.759ZM114.472 36.727v-1.295c.497.228 1.137.457 1.8.457.762 0 1.149-.261 1.149-.762 0-.588-.52-.653-1.557-1.1-.707-.316-1.381-.805-1.381-1.938 0-1.317 1.005-1.938 2.397-1.938.74 0 1.37.174 1.723.305v1.263a4.151 4.151 0 0 0-1.613-.36c-.685 0-1.005.251-1.005.687 0 .457.387.598 1.082.86.895.446 1.933.642 1.933 2.166 0 1.318-1.05 2.036-2.452 2.036-.861 0-1.546-.152-2.076-.38M101.595 30.256h.968c.46 0 .887.237 1.13.627l1.885 3.028c.213.337.46.781.606 1.096h.033a15.706 15.706 0 0 1-.033-1.03v-3.721h1.368v6.758h-1.712l-2.293-3.656a14.723 14.723 0 0 1-.595-1.041h-.022c.011.293.033.64.033.965v3.732h-1.368v-6.758ZM98.603 37.012v-6.754h1.562v6.754z"/></g></g></svg>