<svg width="128" height="68" xmlns="http://www.w3.org/2000/svg" xmlns:xlink="http://www.w3.org/1999/xlink"><defs><filter x="-5%" y="-10%" width="110%" height="120%" filterUnits="objectBoundingBox" id="b"><feMorphology radius="1" in="SourceAlpha" result="shadowSpreadOuter1"/><feOffset dy="3" in="shadowSpreadOuter1" result="shadowOffsetOuter1"/><feGaussianBlur stdDeviation=".5" in="shadowOffsetOuter1" result="shadowBlurOuter1"/><feColorMatrix values="0 0 0 0 0 0 0 0 0 0 0 0 0 0 0 0 0 0 0.1 0" in="shadowBlurOuter1" result="shadowMatrixOuter1"/><feOffset in="SourceAlpha" result="shadowOffsetOuter2"/><feGaussianBlur stdDeviation="2" in="shadowOffsetOuter2" result="shadowBlurOuter2"/><feColorMatrix values="0 0 0 0 0 0 0 0 0 0 0 0 0 0 0 0 0 0 0.08 0" in="shadowBlurOuter2" result="shadowMatrixOuter2"/><feMerge><feMergeNode in="shadowMatrixOuter1"/><feMergeNode in="shadowMatrixOuter2"/></feMerge></filter><rect id="a" x="0" y="0" width="120" height="60" rx="4"/></defs><g transform="translate(4 4)" fill="none" fill-rule="evenodd"><mask id="c" fill="#fff"><use xlink:href="#a"/></mask><use fill="#000" filter="url(#b)" xlink:href="#a"/><use fill="#FFF" xlink:href="#a"/><g mask="url(#c)"><g transform="translate(7 18)"><ellipse stroke="#E42A2B" stroke-width=".851" fill="#FCDD53" fill-rule="nonzero" cx="10.851" cy="11.054" rx="10.851" ry="11.054"/><path d="M18.162 13.649c-.364.438-.695.674-1.29.775h-6.55c-.331-.169-.365-.405 0-.573h3.704c.331 0 .629-.101.86-.405 1.092-1.482 2.35-2.898 3.309-4.515-.43.404-.695.64-1.324.74H12.34c-.463 0-.827.17-1.124.574-.894 1.18-1.82 2.325-2.713 3.505-2.349 2.864-3.97-3.438-.794-2.427-.43-.573-.893-1.112-1.323-1.685-.331-.337-.827-.37-1.158 0-1.985 2.561-2.018 6.504 2.117 6.875h8.8c.661-.977 1.356-1.92 2.018-2.864Zm-1.357-8.021c-.297.236-.496.337-.96.337h-4.002c-.397 0-.893.168-1.158.505L8.138 9.773l.728.944.893-1.112c.298-.337.629-.472 1.092-.472h2.48c1.258 0 2.879-2.764 3.474-3.505Z" fill="#478C3E" fill-rule="nonzero"/><path d="m98.45 7.852-1.522 5.662h-2.183l2.514-9.301h2.216l1.82 5.627 1.522-5.627H105l-2.547 9.3h-2.184l-1.82-5.66Zm-8.8 2.36h2.15l-.132-3.337-2.018 3.336Zm3.805-6 .727 9.302H91.9l-.1-1.719h-3.01l-1.025 1.719h-2.283l5.756-9.301h2.217Zm-9.99 1.82H80.85l.496-1.82h7.377l-.496 1.82h-2.58l-2.052 7.482h-2.15l2.018-7.482Zm-9.198 4.482c0 1.045.53 1.753 1.688 1.55 1.62-.336 1.488-2.358-.43-2.56-1.621-.203-2.448-1.55-2.051-3.135.694-1.516 1.852-2.156 3.54-2.359h.032c1.257-.27 3.143.068 3.342 1.685.033.27.099.81-.067 1.079h-2.05c0-.472-.1-.91-.563-1.045-1.522-.438-3.44 1.382-.232 2.224.827.202 1.952.506 2.184 1.45.33 1.65-.629 3.2-1.919 3.942-1.19.506-2.911.54-4.135.304-1.522-.54-1.82-1.517-1.555-3.135h2.216Zm-1.521-6.301c-.86 3.1-1.687 6.2-2.514 9.3h-2.184l2.514-9.3h2.184Zm-10.123 3.64 4.201-3.64h2.647l-4.5 3.841 2.283 5.46h-2.68L63.087 9.57l-1.19 1.01-.828 2.933h-2.15l2.547-9.301h2.15l-.992 3.64Zm-8.337.067h4.301l-.463 1.685h-4.268l-.562 2.089h4.896l-.463 1.82h-7.113l2.515-9.301h7.013l-.496 1.82h-4.83l-.53 1.887ZM46.082 5.93l-.53 1.989h1.655c.595 0 1.158-.27 1.39-.978.132-.438.032-.775-.398-.943-.562-.169-1.488-.068-2.117-.068Zm-.992 3.606-.596 2.292c1.224 0 2.978.37 3.44-1.18.133-.809-.43-1.112-1.124-1.112h-1.72Zm3.771-5.324c1.125 0 2.349.438 2.117 1.82-.165 1.078-1.091 2.089-2.05 2.46v.067c1.389 0 1.389 1.853 1.058 2.797-.496 1.483-2.051 2.157-3.507 2.157h-4.631l2.514-9.301h4.5Zm-9.13 1.853h-4.169l.53-1.853h6.814l-.43 1.718-6.02 5.73h4.73l-.463 1.853h-7.41l.53-1.955 5.888-5.493ZM29.442 4.213c-.496 1.82-1.025 3.64-1.521 5.425-.199.944-.166 2.528 1.19 2.326 1.092-.135 1.952-1.281 2.184-2.326.463-1.786.926-3.606 1.422-5.425h2.15c-.661 2.46-1.025 5.796-2.58 7.953-1.091 1.078-2.084 1.55-3.705 1.55-2.613 0-3.242-1.213-2.91-3.74.495-1.922 1.025-3.843 1.554-5.763h2.216ZM87.17 19.917l-1.49 2.898h-1.455l-.132-4.718h1.488l-.066 2.898 1.456-2.898h1.356l-.132 2.898 1.488-2.898h1.555l-2.712 4.718h-1.49l.133-2.898Zm-3.21-1.921-.297 1.112h-.067c-.463 0-.562-.034-.992.135-.629.37-.926.876-1.125 1.651l-.496 1.921h-1.654l1.522-4.718h1.323l-.199.64c.563-.539 1.258-.741 1.985-.741Zm-5.392-.573.265-1.112h1.455l-.297 1.112h-1.423Zm1.224.674-1.257 4.718h-1.423l1.29-4.718h1.39Zm15.482 5.46c.926 0 .86 0 1.356-.81l-.694-4.65h1.687l.198 2.932 1.522-2.932h1.489l-2.845 4.988c-.761 1.246-1.456 1.415-2.978 1.415l.265-.944Zm4.896-2.292h1.356c-.066.303-.066.438.133.674.496.404 1.058.067 1.323-.405.132-.842-1.489-.573-2.051-1.145-.132-.169-.198-.27-.198-.506 0-.472.132-.91.43-1.28.198-.203.43-.338.694-.439.43-.168.86-.202 1.29-.202.298 0 .53 0 .827.034.828.135.828.741.828 1.382h-1.29l.032-.135c0-.438-.33-.438-.628-.438-.397 0-.695.168-.761.606 0 .202.1.304.265.371 1.19.202 2.448.438 1.951 1.786-.231.573-.661.977-1.224 1.213-.363.135-.827.169-1.224.169-.33 0-.661 0-.992-.101-.298-.135-.496-.27-.695-.506-.198-.404-.231-.606-.165-1.078h.1Zm-24.81-.64c-.596 0-1.622.235-1.82.876-.133.27.099.471.33.573.993 0 1.158-.708 1.49-1.45Zm-2.548-1.045c0-1.079 1.39-1.483 2.283-1.618.86 0 1.488-.034 1.918.742.033.235.066.37.033.606-.165.843-1.025 2.696-.694 3.471v.034h-1.456v-.404c-2.944 2.156-4.003-1.82-.96-2.225.265-.067 1.72-.202 1.72-.775 0-.943-1.09-.573-1.422-.067 0 .067-.066.202-.066.236h-1.356Zm20.874 1.044c-.595 0-1.62.236-1.82.877-.132.27.1.471.332.573.992 0 1.157-.708 1.488-1.45ZM91.14 19.58c0-1.079 1.39-1.483 2.283-1.618.86 0 1.488-.034 1.918.742.033.235.066.37.033.606-.165.843-1.025 2.696-.694 3.471v.034h-1.456v-.404c-2.944 2.156-4.003-1.82-.96-2.225.265-.067 1.72-.202 1.72-.775 0-.943-1.09-.573-1.422-.067 0 .067-.066.202-.066.236H91.14Z" fill="#0F477F"/></g></g></g></svg>